<?xml version="1.0" standalone="no"?>
<!DOCTYPE svg PUBLIC "-//W3C//DTD SVG 20010904//EN" "http://www.w3.org/TR/2001/REC-SVG-20010904/DTD/svg10.dtd">
<!-- Created using Krita: https://krita.org -->
<svg xmlns="http://www.w3.org/2000/svg" 
    xmlns:xlink="http://www.w3.org/1999/xlink"
    xmlns:krita="http://krita.org/namespaces/svg/krita"
    xmlns:sodipodi="http://sodipodi.sourceforge.net/DTD/sodipodi-0.dtd"
    width="491.76pt"
    height="491.76pt"
    viewBox="0 0 491.76 491.76">
<defs/>
<g id="group0" transform="matrix(0.999996722514721 0.00256026557519463 -0.00256026557519463 0.999996722514721 31.6494767588959 -34.2757758001054)" fill="none">
  <path id="shape0" transform="matrix(0.999996722514729 -0.00256026557519463 0.00256026557519463 0.999996722514729 140.89234055903 11.167654999396)" fill="#77b3fe" stroke="#25f4ee" stroke-width="36" stroke-linecap="square" stroke-linejoin="miter" stroke-miterlimit="2" d="M0 0C0 59.84 0 119.68 0 179.52" sodipodi:nodetypes="cc"/>
  <path id="shape1" transform="matrix(0.436601052854462 0.899655223208524 -0.899655223208524 0.436601052854462 175.812947045112 2.1316282072803e-14)" fill="#77b3fe" stroke="#25f4ee" stroke-width="36" stroke-linecap="square" stroke-linejoin="bevel" d="M0 37.8188C28.4604 50.0316 59.6067 34.0738 73.8143 0" sodipodi:nodetypes="cc"/>
  <path id="shape2" transform="translate(0, 152.581433377315)" sodipodi:type="arc" sodipodi:rx="70.6799803597677" sodipodi:ry="72.5411687873069" sodipodi:cx="70.6800256556783" sodipodi:cy="72.5388459674177" sodipodi:start="6.27592258968817" sodipodi:end="4.70438637042297" sodipodi:open="true" d="M70.1144 0C31.087 0.320552 -0.300531 33.0463 0.00217117 73.1015C0.304874 113.157 32.1832 145.379 71.2108 145.078C110.238 144.777 141.642 112.067 141.358 72.012" fill="none" stroke="#25f4ee" stroke-width="36" stroke-linecap="square" stroke-linejoin="bevel"/>
 </g><g id="group01" transform="matrix(-0.99999979729934 0.000636711298570866 0.000636711298570866 0.99999979729934 348.382377840216 -33.9298669387513)" fill="none">
  <path id="shape01" transform="matrix(0.999996722514722 -0.00256026557519463 0.00256026557519463 0.999996722514722 140.89234055903 11.1676549993959)" fill="#77b3fe" stroke="#fe2c55" stroke-width="36" stroke-linecap="square" stroke-linejoin="miter" stroke-miterlimit="2" d="M0 0C0 59.84 0 119.68 0 179.52" sodipodi:nodetypes="cc"/>
  <path id="shape11" transform="matrix(0.436601052854462 0.899655223208524 -0.899655223208524 0.436601052854462 175.812947045112 -1.77635683940025e-14)" fill="#77b3fe" stroke="#fe2c55" stroke-width="36" stroke-linecap="square" stroke-linejoin="bevel" d="M0 37.8188C28.4604 50.0316 59.6067 34.0738 73.8143 0" sodipodi:nodetypes="cc"/>
  <path id="shape21" transform="translate(-3.41060513164848e-13, 152.581433377315)" sodipodi:type="arc" sodipodi:rx="70.6799803597677" sodipodi:ry="72.5411687873069" sodipodi:cx="70.6800256556783" sodipodi:cy="72.5388459674177" sodipodi:start="6.27592258968817" sodipodi:end="4.70438637042297" sodipodi:open="true" d="M70.1144 0C31.087 0.320552 -0.300531 33.0463 0.00217117 73.1015C0.304874 113.157 32.1832 145.379 71.2108 145.078C110.238 144.777 141.642 112.067 141.358 72.012" fill="none" stroke="#fe2c55" stroke-width="36" stroke-linecap="square" stroke-linejoin="bevel"/>
 </g><g id="group02" transform="matrix(0.999996722514721 0.00256026557519463 -0.00256026557519463 0.999996722514721 51.5806219789935 -25.9524897778355)" fill="none">
  <path id="shape02" transform="matrix(0.999996722514725 -0.00256026557519463 0.00256026557519463 0.999996722514725 140.89234055903 11.1676549993959)" fill="#77b3fe" stroke="#ffffff" stroke-width="36" stroke-linecap="square" stroke-linejoin="miter" stroke-miterlimit="2" d="M0 0C0 59.84 0 119.68 0 179.52" sodipodi:nodetypes="cc"/>
  <path id="shape12" transform="matrix(0.436601052854462 0.899655223208524 -0.899655223208524 0.436601052854462 175.812947045112 4.61852778244065e-14)" fill="#77b3fe" stroke="#ffffff" stroke-width="36" stroke-linecap="square" stroke-linejoin="bevel" d="M0 37.8188C28.4604 50.0316 59.6067 34.0738 73.8143 0" sodipodi:nodetypes="cc"/>
  <path id="shape22" transform="translate(1.4210854715202e-14, 152.581433377315)" sodipodi:type="arc" sodipodi:rx="70.6799803597677" sodipodi:ry="72.5411687873069" sodipodi:cx="70.6800256556783" sodipodi:cy="72.5388459674177" sodipodi:start="6.27592258968817" sodipodi:end="4.70438637042297" sodipodi:open="true" d="M70.1144 0C31.087 0.320552 -0.300531 33.0463 0.00217117 73.1015C0.304874 113.157 32.1832 145.379 71.2108 145.078C110.238 144.777 141.642 112.067 141.358 72.012" fill="none" stroke="#ffffff" stroke-width="36" stroke-linecap="square" stroke-linejoin="bevel"/>
 </g><g id="group011" transform="matrix(-0.99999979729934 0.000636711298570866 0.000636711298570866 0.99999979729934 331.910815419528 -24.806420318042)" fill="none">
  <path id="shape011" transform="matrix(0.999996722514722 -0.00256026557519463 0.00256026557519463 0.999996722514722 140.89234055903 11.1676549993959)" fill="#77b3fe" stroke="#ffffff" stroke-width="36" stroke-linecap="square" stroke-linejoin="miter" stroke-miterlimit="2" d="M0 0C0 59.84 0 119.68 0 179.52" sodipodi:nodetypes="cc"/>
  <path id="shape111" transform="matrix(0.436601052854462 0.899655223208524 -0.899655223208524 0.436601052854462 175.812947045112 3.5527136788005e-15)" fill="#77b3fe" stroke="#ffffff" stroke-width="36" stroke-linecap="square" stroke-linejoin="bevel" d="M0 37.8188C28.4604 50.0316 59.6067 34.0738 73.8143 0" sodipodi:nodetypes="cc"/>
  <path id="shape211" transform="translate(-1.70530256582424e-13, 152.581433377315)" sodipodi:type="arc" sodipodi:rx="70.6799803597677" sodipodi:ry="72.5411687873069" sodipodi:cx="70.6800256556783" sodipodi:cy="72.5388459674177" sodipodi:start="6.27592258968817" sodipodi:end="4.70438637042297" sodipodi:open="true" d="M70.1144 0C31.087 0.320552 -0.300531 33.0463 0.00217117 73.1015C0.304874 113.157 32.1832 145.379 71.2108 145.078C110.238 144.777 141.642 112.067 141.358 72.012" fill="none" stroke="#ffffff" stroke-width="36" stroke-linecap="square" stroke-linejoin="bevel"/>
 </g><text id="shape3" krita:useRichText="true" text-rendering="auto" krita:textVersion="3" transform="matrix(1.6630707850899 0.00446390428908569 -0.00425791683543733 1.74352602400076 14.5025889939164 407.432109007567)" fill="#ffffff" stroke-opacity="0" stroke="#000000" stroke-width="0" stroke-linecap="square" stroke-linejoin="bevel" letter-spacing="0" word-spacing="0" style="text-align: start;text-align-last: auto;font-family: Tw Cen MT Condensed Extra Bold;font-size: 72;"><tspan x="0">BigCock </tspan></text>
</svg>
